# xmcd
#
# Track frame offsets:
#	150
#	15686
#	26302
#	37816
#	55819
#	70473
#	81923
#	93641
#	111802
#	120601
#	132673
#	146084
#
# Disc length: 2140 seconds
#
# Revision: 1
# Processed by: cddbd v1.4PL0 Copyright (c) Steve Scherf et al.
# Submitted via: audiograbber 1.81.03
#
DISCID=a5085a0c
DTITLE=Bruce Hoffman - Fiddlin' Round One
DYEAR=2003
DGENRE=Instrumental
TTITLE0=Brewster's Roundup
TTITLE1=Cherokee Shuffle
TTITLE2=Redhaired Boy
TTITLE3=Rosebud Of Avonmore
TTITLE4=Nine Pound Hammer
TTITLE5=Soldier's Joy
TTITLE6=Big John McNeil
TTITLE7=Ozark Nights
TTITLE8=Fire On The Mountain
TTITLE9=Ragtime Annie
TTITLE10=Amazing Grace
TTITLE11=Regan's Reign
EXTD=
EXTT0=
EXTT1=
EXTT2=
EXTT3=
EXTT4=
EXTT5=
EXTT6=
EXTT7=
EXTT8=
EXTT9=
EXTT10=
EXTT11=
PLAYORDER=
